<svg width="917" height="626" viewBox="0 0 917 626" fill="none" xmlns="http://www.w3.org/2000/svg">
<path d="M0 612.774L70.482 586.324L312.764 8.96902e-05H339.195L590.287 599.549L634.338 612.774V626H528.615C498.073 626 473.11 619.24 453.728 605.721C434.345 591.614 419.955 573.392 410.558 551.056L365.625 446.723H155.06L96.9127 586.324L162.99 612.774V626H0V612.774ZM163.871 424.68H356.815L259.902 191.326L163.871 424.68Z" fill="#7AACB3"/>
<path d="M446.386 590.732L339.195 69.8006L356.815 59.5142L464.741 299.775H718.014L718.769 26.4507L665.908 13.2253V0H917V13.2253L864.139 26.4507V599.549L917 612.775V626H665.908V612.775L718.769 599.549L718.014 321.817H473.972L589.552 599.549L446.386 590.732Z" fill="#7AACB3"/>
</svg>
