<svg width="91" height="104" viewBox="0 0 91 104" fill="none" xmlns="http://www.w3.org/2000/svg">
<path d="M79.5446 20.4226C79.4731 19.9026 79.0185 19.6148 78.6428 19.5831C78.2677 19.5518 70.3308 18.9623 70.3308 18.9623C70.3308 18.9623 64.8186 13.4792 64.2136 12.8723C63.6082 12.2657 62.4259 12.4502 61.967 12.5856C61.8995 12.6055 60.7627 12.957 58.8823 13.5401C57.0409 8.23109 53.7912 3.35236 48.0742 3.35236C47.9164 3.35236 47.754 3.35877 47.5915 3.36803C45.9656 1.21359 43.9515 0.277588 42.2118 0.277588C28.8942 0.277588 22.5317 16.9585 20.5368 25.4353C15.3619 27.0419 11.6856 28.1841 11.216 28.3319C8.32749 29.2398 8.23613 29.331 7.85685 32.0581C7.5714 34.1228 0.0134277 92.6866 0.0134277 92.6866L58.9068 103.743L90.8172 96.8259C90.8172 96.8259 79.6153 20.9426 79.5449 20.4226H79.5446ZM55.6272 14.5487L50.6439 16.0941C50.6457 15.7422 50.6475 15.3961 50.6475 15.0175C50.6475 11.7179 50.1903 9.06131 49.457 6.95531C52.4028 7.32573 54.3646 10.684 55.6272 14.5487ZM45.8028 7.60959C46.6218 9.66573 47.1543 12.6165 47.1543 16.5985C47.1543 16.8022 47.1525 16.9885 47.1507 17.1769C43.9099 18.1827 40.3883 19.2747 36.8588 20.3702C38.8406 12.707 42.5552 9.00575 45.8028 7.60959ZM41.8461 3.85668C42.4208 3.85668 42.9999 4.05222 43.5541 4.43438C39.286 6.44671 34.7111 11.5149 32.7791 21.6361L24.6439 24.1605C26.9068 16.4407 32.28 3.85668 41.8457 3.85668H41.8461Z" fill="#95BF46"/>
<path d="M78.6428 19.583C78.2678 19.5516 70.3309 18.9622 70.3309 18.9622C70.3309 18.9622 64.8186 13.479 64.2136 12.8721C63.9872 12.6463 63.6818 12.5306 63.3626 12.4807L58.9097 103.742L90.8173 96.8258C90.8173 96.8258 79.615 20.9425 79.5446 20.4225C79.4732 19.9025 79.0185 19.6147 78.6428 19.583Z" fill="#5E8E3E"/>
<path d="M48.0744 37.2494L44.1397 48.9765C44.1397 48.9765 40.6923 47.133 36.4665 47.133C30.2714 47.133 29.9597 51.0283 29.9597 52.0099C29.9597 57.3659 43.894 59.4181 43.894 71.9637C43.894 81.834 37.646 88.1898 29.2214 88.1898C19.1118 88.1898 13.9419 81.8857 13.9419 81.8857L16.6488 72.9246C16.6488 72.9246 21.963 77.496 26.4473 77.496C29.3774 77.496 30.5693 75.1845 30.5693 73.4955C30.5693 66.509 19.1374 66.1974 19.1374 54.7171C19.1374 45.0547 26.0591 35.7043 40.0312 35.7043C45.4147 35.7043 48.0744 37.2494 48.0744 37.2494Z" fill="white"/>
</svg>
