<svg width="164" height="98" viewBox="0 0 164 98" fill="none" xmlns="http://www.w3.org/2000/svg">
<g clip-path="url(#clip0)">
<path d="M15.2207 0H148.713C157.161 0 164 6.83758 164 15.2848V66.2326C164 74.6798 157.161 81.5174 148.713 81.5174H100.841L107.412 97.6061L78.5138 81.5174H15.2873C6.83941 81.5174 0.000736188 74.6798 0.000736188 66.2326V15.2848C-0.0665294 6.90484 6.7715 0 15.2207 0Z" fill="#9B5C8F"/>
<path d="M9.33901 13.9313C10.2724 12.6643 11.6722 11.9982 13.539 11.865C16.9394 11.5979 18.8728 13.1972 19.3392 16.6637C21.4058 30.5951 23.6724 42.3936 26.0721 52.0584L40.672 24.2629C42.0058 21.7296 43.6727 20.3967 45.6727 20.2635C48.6061 20.0636 50.4056 21.9295 51.1392 25.8623C52.8061 34.7271 54.9393 42.2597 57.4724 48.6585C59.2059 31.7282 62.1393 19.5301 66.2726 11.9982C67.272 10.1317 68.7391 9.19845 70.6725 9.06459C72.2061 8.932 73.6059 9.3983 74.8724 10.3982C76.1389 11.398 76.8058 12.6643 76.939 14.1977C77.0057 15.3974 76.8058 16.3973 76.2728 17.3971C73.6725 22.1966 71.5386 30.262 69.8057 41.4597C68.1394 52.3249 67.5392 60.7906 67.9389 66.8564C68.0728 68.5218 67.8057 69.9886 67.1394 71.2555C66.3386 72.7217 65.1394 73.5217 63.6057 73.6549C61.8722 73.7881 60.0727 72.9888 58.3391 71.1889C52.1392 64.856 47.2057 55.391 43.606 42.7932C39.2722 51.325 36.0723 57.7238 34.0056 61.9897C30.0722 69.5223 26.739 73.3885 23.9389 73.5883C22.1387 73.7215 20.6057 72.1881 19.2725 68.9893C15.8727 60.2571 12.2058 43.3928 8.27301 18.397C8.00587 16.6637 8.40562 15.1303 9.33901 13.9313ZM152.606 24.3961C150.206 20.1969 146.672 17.6642 141.939 16.6637C140.672 16.3973 139.473 16.2641 138.339 16.2641C131.939 16.2641 126.739 19.5967 122.673 26.2626C119.206 31.928 117.473 38.1936 117.473 45.0594C117.473 50.1919 118.539 54.591 120.673 58.2574C123.072 62.4567 126.606 64.9893 131.339 65.9891C132.606 66.2562 133.805 66.3895 134.939 66.3895C141.406 66.3895 146.606 63.0568 150.606 56.3909C154.072 50.6582 155.806 44.3926 155.806 37.5275C155.872 32.3284 154.739 27.9952 152.606 24.3961ZM144.206 42.8599C143.273 47.259 141.606 50.525 139.139 52.7245C137.206 54.4578 135.406 55.1906 133.739 54.8575C132.139 54.5244 130.805 53.1249 129.806 50.525C129.005 48.4587 128.606 46.3923 128.606 44.4592C128.606 42.7932 128.739 41.1266 129.072 39.5938C129.673 36.8607 130.806 34.1942 132.606 31.6616C134.806 28.3949 137.139 27.0626 139.539 27.5289C141.139 27.862 142.473 29.2622 143.472 31.8614C144.273 33.9278 144.672 35.9941 144.672 37.9272C144.672 39.6604 144.539 41.3264 144.206 42.8592V42.8599ZM110.872 24.3961C108.473 20.1969 104.872 17.6642 100.206 16.6637C98.9394 16.3973 97.7395 16.2641 96.6056 16.2641C90.2057 16.2641 85.0058 19.5967 80.9391 26.2626C77.4727 31.928 75.7392 38.1936 75.7392 45.0594C75.7392 50.1919 76.8058 54.591 78.9391 58.2574C81.3389 62.4567 84.8726 64.9893 89.6055 65.9891C90.8726 66.2562 92.0719 66.3895 93.2058 66.3895C99.6723 66.3895 104.872 63.0568 108.872 56.3909C112.339 50.6582 114.072 44.3926 114.072 37.5275C114.072 32.3284 113.006 27.9952 110.872 24.3961ZM102.406 42.8599C101.472 47.259 99.8055 50.525 97.3391 52.7245C95.4057 54.4578 93.6056 55.1906 91.9386 54.8575C90.339 54.5244 89.0059 53.1249 88.0052 50.525C87.2057 48.4587 86.806 46.3923 86.806 44.4592C86.806 42.7932 86.9392 41.1266 87.2723 39.5938C87.8726 36.8607 89.0059 34.1942 90.806 31.6616C93.0059 28.3949 95.3391 27.0626 97.7389 27.5289C99.3391 27.862 100.673 29.2622 101.672 31.8614C102.473 33.9278 102.872 35.9941 102.872 37.9272C102.939 39.6604 102.739 41.3264 102.406 42.8592V42.8599Z" fill="white"/>
</g>
<defs>
<clipPath id="clip0">
<rect width="164" height="98" fill="white"/>
</clipPath>
</defs>
</svg>
