<svg width="416" height="95" viewBox="0 0 416 95" fill="none" xmlns="http://www.w3.org/2000/svg">
<path d="M241.272 37.1281H224.896V38.8641C230.018 38.8641 230.842 39.961 230.842 46.4527V58.1556C230.842 64.6464 230.019 65.8351 224.896 65.8351C220.963 65.2871 218.309 63.1833 214.65 59.1608L210.442 54.5902C216.113 53.5834 219.132 50.0189 219.132 45.9956C219.132 40.9687 214.834 37.1289 206.782 37.1289H190.682V38.8641C195.804 38.8641 196.627 39.961 196.627 46.4527V58.1556C196.627 64.6464 195.804 65.8351 190.682 65.8351V67.5719H208.886V65.8343C203.764 65.8343 202.941 64.6464 202.941 58.1556V54.8647H204.495L214.65 67.5719H241.272C254.353 67.5719 260.025 60.6248 260.025 52.3037C260.025 43.9843 254.354 37.1281 241.272 37.1281ZM202.941 52.0293V39.8709H206.691C210.807 39.8709 212.638 42.7047 212.638 45.9964C212.638 49.1963 210.807 52.0293 206.691 52.0293H202.941ZM241.547 64.7382H240.905C237.613 64.7382 237.156 63.9157 237.156 59.7097V39.8709H241.547C251.061 39.8709 252.798 46.8181 252.798 52.2128C252.798 57.7894 251.059 64.7382 241.547 64.7382ZM139.728 55.4136L146.04 36.7619C147.871 31.368 147.047 29.8147 141.192 29.8147V27.9854H158.39V29.8147C152.627 29.8147 151.256 31.1853 148.969 37.8597L138.539 69.126H137.35L128.018 40.5091L118.503 69.126H117.314L107.161 37.8597C104.965 31.1853 103.501 29.8147 98.1947 29.8147V27.9854H118.504V29.8147C113.107 29.8147 111.642 31.0944 113.564 36.7619L119.693 55.4128L128.932 27.9854H130.671L139.728 55.4136ZM170.831 68.7598C160.768 68.7598 152.535 61.3547 152.535 52.3029C152.535 43.3445 160.769 35.9377 170.831 35.9377C180.894 35.9377 189.126 43.3445 189.126 52.3029C189.126 61.3547 180.894 68.7598 170.831 68.7598ZM170.831 38.7739C162.415 38.7739 159.487 46.361 159.487 52.3037C159.487 58.3391 162.415 65.8351 170.831 65.8351C179.339 65.8351 182.267 58.3391 182.267 52.3037C182.267 46.361 179.339 38.7739 170.831 38.7739Z" fill="#00749A"/>
<path d="M282.62 65.7432V67.5718H261.671V65.7432C267.801 65.7432 268.899 64.1891 268.899 55.0456V40.4196C268.899 31.2753 267.801 29.8137 261.671 29.8137V27.9844H280.607C290.029 27.9844 295.245 32.8302 295.245 39.3219C295.245 45.6308 290.029 50.5668 280.607 50.5668H275.393V55.0448C275.393 64.1891 276.49 65.7432 282.62 65.7432ZM280.607 31.2753H275.393V47.1841H280.607C285.731 47.1841 288.109 43.6188 288.109 39.3219C288.109 34.934 285.731 31.2753 280.607 31.2753ZM358.092 58.9779L357.635 60.6238C356.812 63.6402 355.804 64.738 349.309 64.738H348.028C343.272 64.738 342.448 63.6402 342.448 57.1502V52.9442C349.585 52.9442 350.134 53.584 350.134 58.3389H351.872V44.7149H350.133C350.133 49.469 349.585 50.1088 342.448 50.1088V39.8699H347.479C353.975 39.8699 354.98 40.9677 355.804 43.9842L356.263 45.7201H357.725L357.086 37.1271H330.189V38.8631C335.311 38.8631 336.136 39.9601 336.136 46.4517V58.1546C336.136 64.0925 335.437 65.5881 331.398 65.8017C327.559 65.2155 324.924 63.123 321.317 59.1598L317.108 54.5893C322.781 53.5824 325.8 50.0179 325.8 45.9946C325.8 40.9677 321.501 37.1279 313.45 37.1279H297.35V38.8631C302.472 38.8631 303.296 39.9601 303.296 46.4517V58.1546C303.296 64.6455 302.473 65.8342 297.35 65.8342V67.571H315.555V65.8334C310.433 65.8334 309.609 64.6455 309.609 58.1546V54.8645H311.164L321.318 67.5718H358.917L359.466 58.9787H358.092V58.9779ZM309.608 52.0291V39.8707H313.358C317.475 39.8707 319.305 42.7045 319.305 45.9962C319.305 49.1962 317.475 52.0291 313.358 52.0291H309.608ZM376.663 68.7597C373.003 68.7597 369.801 66.8402 368.429 65.6507C367.972 66.1086 367.148 67.48 366.966 68.7597H365.228V56.1442H367.057C367.79 62.1771 371.997 65.7432 377.395 65.7432C380.322 65.7432 382.701 64.0982 382.701 61.3554C382.701 58.9787 380.597 57.1494 376.846 55.4134L371.632 52.945C367.972 51.2066 365.228 48.1893 365.228 44.1677C365.228 39.7798 369.345 36.0318 375.017 36.0318C378.036 36.0318 380.596 37.1287 382.153 38.4084C382.61 38.043 383.067 37.0362 383.342 35.9384H385.08V46.7286H383.159C382.517 42.4309 380.14 38.8655 375.291 38.8655C372.73 38.8655 370.351 40.3287 370.351 42.6152C370.351 44.9918 372.272 46.2707 376.664 48.2827L381.694 50.7511C386.086 52.8533 387.823 56.2375 387.823 58.9796C387.823 64.7388 382.792 68.7605 376.663 68.7605V68.7597ZM404.839 68.7597C401.179 68.7597 397.976 66.8402 396.606 65.6507C396.147 66.1086 395.325 67.48 395.143 68.7597H393.404V56.1442H395.233C395.965 62.1771 400.173 65.7432 405.571 65.7432C408.498 65.7432 410.877 64.0982 410.877 61.3554C410.877 58.9787 408.773 57.1494 405.022 55.4134L399.807 52.945C396.147 51.2066 393.403 48.1893 393.403 44.1677C393.403 39.7798 397.52 36.0318 403.192 36.0318C406.211 36.0318 408.772 37.1287 410.328 38.4084C410.785 38.043 411.242 37.0362 411.516 35.9384H413.255V46.7286H411.334C410.693 42.4309 408.315 38.8655 403.467 38.8655C400.905 38.8655 398.526 40.3287 398.526 42.6152C398.526 44.9918 400.447 46.2707 404.839 48.2827L409.87 50.7511C414.261 52.8533 415.998 56.2375 415.998 58.9796C415.998 64.7388 410.967 68.7605 404.839 68.7605V68.7597Z" fill="#464342"/>
<path d="M6.708 47.1614C6.708 63.1766 16.0217 77.0158 29.5263 83.5748L10.2131 30.6956C7.89793 35.8767 6.7035 41.488 6.708 47.1622V47.1614ZM74.5257 45.1201C74.5257 40.12 72.7285 36.657 71.1864 33.9613C69.134 30.629 67.2108 27.8066 67.2108 24.4743C67.2108 20.7547 70.0334 17.2924 74.009 17.2924C74.1886 17.2924 74.3584 17.3152 74.5339 17.3249C67.3311 10.7301 57.7346 6.7044 47.1941 6.7044C33.0501 6.7044 20.6066 13.9561 13.3672 24.9412C14.3179 24.9688 15.2124 24.9891 15.9729 24.9891C20.2077 24.9891 26.7629 24.4751 26.7629 24.4751C28.9453 24.3468 29.2021 27.55 27.0229 27.8082C27.0229 27.8082 24.8292 28.0664 22.3884 28.1939L37.1321 72.0181L45.9916 45.4636L39.6841 28.1931C37.5042 28.0648 35.4388 27.8066 35.4388 27.8066C33.2564 27.6791 33.5132 24.3452 35.6939 24.4743C35.6939 24.4743 42.3808 24.9874 46.3588 24.9874C50.5919 24.9874 57.1488 24.4743 57.1488 24.4743C59.332 24.3452 59.5887 27.5484 57.408 27.8066C57.408 27.8066 55.2102 28.0648 52.7743 28.1923L67.405 71.6852L71.4431 58.1985C73.1933 52.6032 74.5257 48.584 74.5257 45.1201ZM47.9042 50.7008L35.7573 85.975C39.4711 87.0681 43.3226 87.6232 47.1941 87.6233C51.7732 87.6248 56.3193 86.8492 60.6385 85.3295C60.5264 85.1526 60.4301 84.9663 60.3509 84.7725L47.9042 50.7008ZM82.719 27.7506C82.8929 29.0391 82.992 30.4219 82.992 31.9111C82.992 36.0164 82.2242 40.6316 79.9126 46.4022L67.5464 82.1344C79.5828 75.1198 87.6785 62.0886 87.6785 47.163C87.6793 40.1282 85.8812 33.5139 82.719 27.7506ZM47.1941 0C21.1721 0 0 21.1566 0 47.1614C0 73.1703 21.1721 94.3261 47.1941 94.3261C73.216 94.3261 94.3906 73.1703 94.3906 47.1614C94.3906 21.1566 73.216 0 47.1941 0ZM47.1941 92.1638C22.3657 92.1638 2.16369 71.9759 2.16369 47.1614C2.16369 22.3494 22.3649 2.16227 47.1941 2.16227C72.0224 2.16227 92.2228 22.3494 92.2228 47.1614C92.2228 71.9759 72.0224 92.1638 47.1941 92.1638Z" fill="#464342"/>
</svg>
