<svg width="220" height="220" viewBox="0 0 220 220" fill="none" xmlns="http://www.w3.org/2000/svg">
<circle cx="110" cy="108" r="80" fill="white"/>
<path d="M133.024 137.608C133.024 137.608 122.324 167.342 130.645 183.993C138.966 200.644 117.562 219.674 117.562 219.674C117.562 219.674 61.662 191.129 68.798 176.857C75.934 162.585 87.828 143.557 85.449 131.657L133.024 137.608Z" fill="url(#paint0_linear)"/>
<path d="M112.21 72.787C119.738 72.7868 127.096 75.0188 133.355 79.2008C139.614 83.3827 144.493 89.3268 147.374 96.2814C150.254 103.236 151.008 110.889 149.54 118.272C148.071 125.655 144.447 132.436 139.124 137.759C133.801 143.082 127.019 146.707 119.637 148.176C112.254 149.644 104.601 148.891 97.6463 146.01C90.6917 143.129 84.7475 138.251 80.5653 131.992C76.3832 125.733 74.151 118.375 74.151 110.847C74.1509 105.849 75.1352 100.9 77.0478 96.2821C78.9604 91.6645 81.7638 87.4688 85.2979 83.9346C88.832 80.4004 93.0276 77.5969 97.6452 75.6842C102.263 73.7715 107.212 72.787 112.21 72.787V72.787Z" fill="#E6ADAD"/>
<path d="M131.909 60.816L138 56.2555C138 56.2555 119.529 44.379 100.053 51.0638L103.986 43.4238C103.986 43.4238 88.8813 41.6203 80.3233 59.2808C75.824 68.5636 70.6568 79.4451 68.6304 90.6834L61.3265 92.6417L66.1743 98.5383L57.3017 108.112L67.9327 103.969C68.2655 107.821 69.1717 111.602 70.6214 115.187C72.0854 118.766 74.8826 121.637 78.4228 123.194C78.4228 123.194 82.1874 103.416 81.4552 100.685L83.2856 107.512C83.2856 107.512 88.4592 99.5391 87.3611 95.4433L92.3624 99.2247L92.2095 91.2162L117.165 92.5746L111.798 87.4282L126.608 85.6525L119.013 79.6394C119.013 79.6394 137.514 84.1915 140.145 91.5357C142.776 98.8799 149.408 104.728 149.408 104.728C149.408 104.728 152.639 66.2335 131.909 60.816Z" fill="#412E2E"/>
<path fill-rule="evenodd" clip-rule="evenodd" d="M110 220C170.751 220 220 170.751 220 110C220 49.2487 170.751 0 110 0C49.2487 0 0 49.2487 0 110C0 170.751 49.2487 220 110 220ZM110 181C149.212 181 181 149.212 181 110C181 70.7878 149.212 39 110 39C70.7878 39 39 70.7878 39 110C39 149.212 70.7878 181 110 181Z" fill="#388F6B"/>
<defs>
<linearGradient id="paint0_linear" x1="100.596" y1="131.657" x2="28.7489" y2="146.91" gradientUnits="userSpaceOnUse">
<stop stop-color="#DCA3A3"/>
<stop offset="1" stop-color="#AD9393"/>
</linearGradient>
</defs>
</svg>
