<svg width="1122" height="700" viewBox="0 0 1122 700" fill="none" xmlns="http://www.w3.org/2000/svg">
<g clip-path="url(#clip0)">
<path d="M852.806 621.999C993.086 621.999 1106.81 508.28 1106.81 367.999C1106.81 227.719 993.086 114 852.806 114C712.526 114 598.806 227.719 598.806 367.999C598.806 508.28 712.526 621.999 852.806 621.999Z" fill="#F2F2F2"/>
<path d="M137.806 194C191.378 194 234.806 150.572 234.806 97C234.806 43.4284 191.378 0 137.806 0C84.2343 0 40.8059 43.4284 40.8059 97C40.8059 150.572 84.2343 194 137.806 194Z" fill="#FF6584"/>
<path d="M311.806 520.999C452.086 520.999 565.806 407.28 565.806 266.999C565.806 126.719 452.086 12.9995 311.806 12.9995C171.526 12.9995 57.8059 126.719 57.8059 266.999C57.8059 407.28 171.526 520.999 311.806 520.999Z" fill="#F2F2F2"/>
<path d="M299.806 535C453.893 535 578.806 528.284 578.806 520C578.806 511.716 453.893 505 299.806 505C145.718 505 20.8059 511.716 20.8059 520C20.8059 528.284 145.718 535 299.806 535Z" fill="#3F3D56"/>
<path opacity="0.1" d="M243.806 530.862C359.233 530.862 452.806 526.231 452.806 520.517C452.806 514.804 359.233 510.172 243.806 510.172C128.378 510.172 34.8059 514.804 34.8059 520.517C34.8059 526.231 128.378 530.862 243.806 530.862Z" fill="black"/>
<path d="M842.806 641C996.893 641 1121.81 633.613 1121.81 624.5C1121.81 615.387 996.893 608 842.806 608C688.718 608 563.806 615.387 563.806 624.5C563.806 633.613 688.718 641 842.806 641Z" fill="#3F3D56"/>
<path opacity="0.1" d="M786.806 636.448C902.233 636.448 995.806 631.354 995.806 625.069C995.806 618.784 902.233 613.69 786.806 613.69C671.378 613.69 577.806 618.784 577.806 625.069C577.806 631.354 671.378 636.448 786.806 636.448Z" fill="black"/>
<path d="M400.903 595C499.234 595 578.946 590.971 578.946 586C578.946 581.029 499.234 577 400.903 577C302.572 577 222.859 581.029 222.859 586C222.859 590.971 302.572 595 400.903 595Z" fill="#3F3D56"/>
<path d="M85.903 560.342C133.346 560.342 171.806 558.398 171.806 556C171.806 553.602 133.346 551.658 85.903 551.658C38.4601 551.658 0 553.602 0 556C0 558.398 38.4601 560.342 85.903 560.342Z" fill="#3F3D56"/>
<path d="M952.927 699.082C1041.23 699.082 1112.81 695.463 1112.81 691C1112.81 686.537 1041.23 682.918 952.927 682.918C864.628 682.918 793.048 686.537 793.048 691C793.048 695.463 864.628 699.082 952.927 699.082Z" fill="#3F3D56"/>
<path d="M935.806 433H615.806V623H935.806V433Z" fill="#3F3D56"/>
<path d="M718.806 602C758.57 602 790.806 569.765 790.806 530C790.806 490.235 758.57 458 718.806 458C679.041 458 646.806 490.235 646.806 530C646.806 569.765 679.041 602 718.806 602Z" fill="#6C63FF"/>
<path d="M836.806 463H812.806V487H836.806V463Z" fill="#6C63FF"/>
<path opacity="0.5" d="M866.806 463H842.806V487H866.806V463Z" fill="#6C63FF"/>
<path opacity="0.2" d="M896.806 463H872.806V487H896.806V463Z" fill="#6C63FF"/>
<path d="M836.806 493H812.806V517H836.806V493Z" fill="#2F2E41"/>
<path opacity="0.5" d="M866.806 493H842.806V517H866.806V493Z" fill="#2F2E41"/>
<path opacity="0.2" d="M896.806 493H872.806V517H896.806V493Z" fill="#2F2E41"/>
<path d="M836.806 523H812.806V547H836.806V523Z" fill="#FF6584"/>
<path opacity="0.5" d="M866.806 523H842.806V547H866.806V523Z" fill="#FF6584"/>
<path opacity="0.2" d="M896.806 523H872.806V547H896.806V523Z" fill="#FF6584"/>
<path opacity="0.5" d="M718.806 458V602C758.57 602 792.806 569.764 792.806 530C792.806 490.236 758.57 458 718.806 458Z" fill="#3F3D56"/>
<path d="M1004.31 446.5C1004.31 446.5 1046.31 465.5 1031.31 487.5C1016.31 509.5 971.306 551.5 970.306 560.5C969.306 569.5 963.306 577.5 963.306 577.5C963.306 577.5 943.306 556.5 945.306 554.5C947.306 552.5 967.306 533.5 968.306 528.5C969.306 523.5 999.306 484.5 999.306 484.5L972.306 460.5L1004.31 446.5Z" fill="#FFB9B9"/>
<path opacity="0.1" d="M1004.31 446.5C1004.31 446.5 1046.31 465.5 1031.31 487.5C1016.31 509.5 971.306 551.5 970.306 560.5C969.306 569.5 963.306 577.5 963.306 577.5C963.306 577.5 943.306 556.5 945.306 554.5C947.306 552.5 967.306 533.5 968.306 528.5C969.306 523.5 999.306 484.5 999.306 484.5L972.306 460.5L1004.31 446.5Z" fill="black"/>
<path d="M951.306 488.5C951.306 488.5 980.306 500.5 978.306 519.5C976.306 538.5 1013.31 592.5 1013.31 592.5C1013.31 592.5 1017.31 605.5 1016.31 609.5C1015.31 613.5 1042.31 612.5 1042.31 612.5V603.5C1042.31 603.5 1021.31 567.5 1019.31 557.5C1017.31 547.5 1005.31 508.5 1005.31 508.5C1005.31 508.5 1001.31 473.5 981.306 473.5C975.484 473.5 969.742 474.855 964.535 477.459C959.328 480.063 954.799 483.843 951.306 488.5V488.5Z" fill="#FFB9B9"/>
<path d="M952.806 398C952.806 398 1012.81 447 1010.81 451C1008.81 455 979.806 470 974.806 471C969.806 472 934.428 398 934.428 398H952.806Z" fill="#2F2E41"/>
<path opacity="0.1" d="M952.806 398C952.806 398 1012.81 447 1010.81 451C1008.81 455 979.806 470 974.806 471C969.806 472 934.428 398 934.428 398H952.806Z" fill="black"/>
<path d="M887.806 408C887.806 408 881.806 435 897.806 446C913.806 457 940.806 500 943.806 500C946.806 500 989.806 477 987.806 473C985.806 469 963.806 434 963.806 434L956.806 397C956.806 397 895.806 395 887.806 408Z" fill="#2F2E41"/>
<path d="M952.806 320L961.806 378L977.806 419C977.806 419 1001.81 444 987.806 446C973.806 448 965.806 419 965.806 419L952.806 395V320Z" fill="#FFB9B9"/>
<path opacity="0.1" d="M952.806 320L961.806 378L977.806 419C977.806 419 1001.81 444 987.806 446C973.806 448 965.806 419 965.806 419L952.806 395V320Z" fill="black"/>
<path d="M919.306 255.5C919.306 255.5 919.306 276.5 912.306 278.5C905.306 280.5 940.306 307.5 940.306 307.5C940.306 307.5 936.306 272.5 950.306 263.5L919.306 255.5Z" fill="#FFB9B9"/>
<path opacity="0.1" d="M919.306 255.5C919.306 255.5 919.306 276.5 912.306 278.5C905.306 280.5 940.306 307.5 940.306 307.5C940.306 307.5 936.306 272.5 950.306 263.5L919.306 255.5Z" fill="black"/>
<path d="M935.306 272.5C948.008 272.5 958.306 262.203 958.306 249.5C958.306 236.797 948.008 226.5 935.306 226.5C922.603 226.5 912.306 236.797 912.306 249.5C912.306 262.203 922.603 272.5 935.306 272.5Z" fill="#FFB9B9"/>
<path d="M936.306 297.5C936.306 297.5 915.306 271.5 912.306 272.5C909.306 273.5 887.306 295.5 885.306 302.5C883.306 309.5 879.306 359.5 882.306 369.5C885.306 379.5 885.306 405.5 884.306 407.5C883.306 409.5 877.306 414.5 883.306 414.5C889.306 414.5 910.306 399.5 924.306 402.5C938.306 405.5 957.306 401.5 958.306 399.5C959.306 397.5 957.306 345.5 958.306 341.5C959.306 337.5 956.306 317.5 955.306 313.5C954.306 309.5 954.306 293.5 944.306 289.5L940.042 289.079L939.803 298.97L936.306 297.5Z" fill="#63ABFF"/>
<path d="M892.306 349.5C892.306 349.5 894.306 380.5 909.306 393.5C924.306 406.5 956.306 428.5 958.306 432.5C960.306 436.5 979.306 457.5 983.306 448.5C984.467 445.694 984.746 442.602 984.108 439.633C983.527 436.683 982.349 433.882 980.646 431.403C978.943 428.925 976.751 426.821 974.204 425.22L965.306 419.5L921.306 373.5L919.306 349.5H892.306Z" fill="#FFB9B9"/>
<path d="M949.806 551C949.806 551 938.306 548.5 934.306 555.5C930.306 562.5 938.306 581.5 938.306 581.5C938.306 581.5 961.306 629.5 965.306 623.5C969.306 617.5 962.306 595.5 962.306 595.5C962.306 595.5 972.306 573.5 968.306 572.5C964.306 571.5 949.806 563 949.806 551Z" fill="#2F2E41"/>
<path d="M1020.31 608.5C1020.31 608.5 1014.31 605.5 1013.31 608.5C1012.31 611.5 1006.31 626.5 1013.31 628.5C1020.31 630.5 1089.31 632.5 1087.31 628.5C1085.31 624.5 1074.31 619.5 1067.31 617.5C1060.31 615.5 1042.31 600.5 1042.31 600.5C1042.31 600.5 1032.31 613.5 1020.31 608.5Z" fill="#2F2E41"/>
<path d="M901.306 298.5C901.306 298.5 923.306 308.5 922.306 329.5C921.306 350.5 928.306 352.5 911.306 354.5C894.306 356.5 890.306 354.5 889.306 356.5C888.306 358.5 882.306 310.5 886.306 305.5C890.306 300.5 901.306 298.5 901.306 298.5Z" fill="#6EB0FE"/>
<path d="M458.806 129C476.479 129 490.806 114.673 490.806 97C490.806 79.3269 476.479 65 458.806 65C441.133 65 426.806 79.3269 426.806 97C426.806 114.673 441.133 129 458.806 129Z" fill="#2F2E41"/>
<path d="M480.306 447.5L462.306 496.5C462.306 496.5 447.306 508.5 456.306 512.5C465.306 516.5 483.306 508.5 483.306 508.5L497.306 472.5L495.306 447.5H480.306Z" fill="#2F2E41"/>
<path opacity="0.1" d="M480.306 447.5L462.306 496.5C462.306 496.5 447.306 508.5 456.306 512.5C465.306 516.5 483.306 508.5 483.306 508.5L497.306 472.5L495.306 447.5H480.306Z" fill="black"/>
<path d="M481.806 157L496.806 159C496.806 159 503.806 214 500.806 218C497.806 222 482.806 238 476.806 234C470.806 230 481.806 157 481.806 157Z" fill="#575A89"/>
<path d="M338.306 257.5C338.306 257.5 317.306 266.5 313.306 267.5C309.306 268.5 303.306 278.5 310.306 280.5C317.306 282.5 344.306 262.5 344.306 262.5L338.306 257.5Z" fill="#A0616A"/>
<path d="M487.306 467.5L498.306 508.5C498.306 508.5 499.306 523.5 504.306 524.5C509.306 525.5 524.306 519.5 524.306 517.5C524.306 515.5 518.306 499.5 518.306 499.5C518.306 499.5 518.306 487.5 512.306 482.5C506.306 477.5 500.901 460.75 500.901 460.75L487.306 467.5Z" fill="#2F2E41"/>
<path d="M501.306 373.5C503.326 378.21 503.076 412.38 500.866 435.12C499.796 446.17 498.266 454.52 496.306 455.5L481.976 451.92L476.306 450.5L476.156 438.06L475.306 369.5L458.306 298.5V280.5L501.306 284.5L508.126 295.21L508.306 295.5C508.306 295.5 498.306 366.5 501.306 373.5Z" fill="#2F2E41"/>
<path opacity="0.1" d="M492.306 395.5C494.446 398.71 498.016 417.93 500.866 435.12C499.796 446.17 498.266 454.52 496.306 455.5L481.976 451.92C481.756 451.46 481.536 450.98 481.306 450.5C479.476 446.66 477.756 442.42 476.156 438.06L475.306 369.5L458.306 298.5V280.5L501.306 284.5L508.126 295.21L468.306 292.5L477.306 331.5L488.306 372.5C488.306 372.5 488.306 389.5 492.306 395.5Z" fill="black"/>
<path d="M421.306 240.5C421.306 240.5 407.306 271.5 427.306 314.5C439.682 341.259 450.696 368.628 460.306 396.5C460.306 396.5 467.306 429.5 477.306 450.5C487.306 471.5 485.306 472.5 485.306 472.5L501.306 463.5C501.306 463.5 492.306 401.5 488.306 395.5C484.306 389.5 484.306 372.5 484.306 372.5L473.306 331.5L464.306 292.5L508.306 295.5C508.306 295.5 508.306 238.5 488.306 227.5L421.306 240.5Z" fill="#2F2E41"/>
<path d="M437.806 112C437.806 112 437.806 128 432.806 129C427.806 130 417.806 130 414.806 135C411.806 140 437.806 206 437.806 206L464.806 189L473.806 144C473.806 144 460.806 136 460.806 132V114L437.806 112Z" fill="#A0616A"/>
<path opacity="0.1" d="M437.806 112C437.806 112 437.806 128 432.806 129C427.806 130 417.806 130 414.806 135C411.806 140 437.806 206 437.806 206L464.806 189L473.806 144C473.806 144 460.806 136 460.806 132V114L437.806 112Z" fill="black"/>
<path d="M453.306 129.5C466.561 129.5 477.306 118.755 477.306 105.5C477.306 92.2452 466.561 81.5 453.306 81.5C440.051 81.5 429.306 92.2452 429.306 105.5C429.306 118.755 440.051 129.5 453.306 129.5Z" fill="#A0616A"/>
<path d="M440.806 186C440.806 186 431.806 129 429.806 129C427.806 129 399.806 135 397.806 136C395.806 137 388.806 146 388.806 146L402.806 186C402.806 186 408.806 214 412.806 219C416.806 224 424.806 238 420.806 240C416.806 242 412.806 245 416.806 245C420.806 245 453.806 239 455.806 242C457.806 245 490.806 231 490.806 230C490.806 229 486.806 182 486.806 182L496.806 159L466.806 138L440.806 186Z" fill="#575A89"/>
<path d="M398.806 141L388.806 146C388.806 146 360.806 210 358.806 211C356.806 212 346.806 231 345.806 235C344.806 239 342.806 252 339.806 254C338.197 255.093 336.528 256.094 334.806 257C334.806 257 340.806 267 343.806 267C346.806 267 356.806 253 356.806 253C356.806 253 378.806 267 384.806 256C390.806 245 405.806 175 405.806 175L398.806 141Z" fill="#575A89"/>
<path d="M477.306 171.5C477.306 171.5 463.306 137.5 455.306 141.5C447.306 145.5 461.306 169.5 470.306 173.5L477.306 171.5Z" fill="#A0616A"/>
<path opacity="0.1" d="M463.306 172.5L477.337 169.328L480.306 184.5C480.306 184.5 493.306 207.5 490.306 217.5C487.306 227.5 469.306 243.5 463.306 234.5C457.306 225.5 452.306 211.5 456.306 203.5C460.306 195.5 466.306 176.5 463.306 172.5Z" fill="black"/>
<path d="M466.306 170.5L480.337 167.328L483.306 182.5C483.306 182.5 496.306 205.5 493.306 215.5C490.306 225.5 472.306 241.5 466.306 232.5C460.306 223.5 455.306 209.5 459.306 201.5C463.306 193.5 469.306 174.5 466.306 170.5Z" fill="#575A89"/>
<path d="M481.539 100.681C484.234 94.9298 476.687 85.709 464.684 80.0861C452.681 74.4631 440.767 74.5673 438.072 80.3187C435.378 86.0702 442.924 95.291 454.927 100.914C466.93 106.537 478.845 106.433 481.539 100.681Z" fill="#2F2E41"/>
<path d="M477.806 84C485.538 84 491.806 77.732 491.806 70C491.806 62.268 485.538 56 477.806 56C470.074 56 463.806 62.268 463.806 70C463.806 77.732 470.074 84 477.806 84Z" fill="#2F2E41"/>
<path d="M464.806 65C464.807 61.5471 466.083 58.2161 468.39 55.6472C470.698 53.0782 473.873 51.4527 477.306 51.0828C475.351 50.8692 473.373 51.07 471.5 51.6721C469.628 52.2741 467.904 53.2639 466.439 54.5769C464.975 55.89 463.804 57.4968 463.002 59.2927C462.2 61.0886 461.786 63.0333 461.786 65C461.786 66.9668 462.2 68.9114 463.002 70.7073C463.804 72.5032 464.975 74.11 466.439 75.4231C467.904 76.7361 469.628 77.7259 471.5 78.3279C473.373 78.93 475.351 79.1308 477.306 78.9172C473.873 78.5474 470.698 76.9218 468.39 74.3529C466.083 71.7839 464.807 68.453 464.806 65V65Z" fill="#2F2E41"/>
<path d="M414.806 277H64.8059V520H414.806V277Z" fill="#3F3D56"/>
<path d="M138.806 301H92.8059V347H138.806V301Z" fill="#F2F2F2"/>
<path d="M138.806 376H92.8059V422H138.806V376Z" fill="#6C63FF"/>
<path d="M138.806 451H92.8059V497H138.806V451Z" fill="#F2F2F2"/>
<path d="M379.806 315.5H160.806V319.5H379.806V315.5Z" fill="#F2F2F2"/>
<path d="M228.806 328.5H160.806V332.5H228.806V328.5Z" fill="#F2F2F2"/>
<path d="M379.806 390.5H160.806V394.5H379.806V390.5Z" fill="#F2F2F2"/>
<path d="M228.806 403.5H160.806V407.5H228.806V403.5Z" fill="#F2F2F2"/>
<path d="M379.806 465.5H160.806V469.5H379.806V465.5Z" fill="#F2F2F2"/>
<path d="M228.806 478.5H160.806V482.5H228.806V478.5Z" fill="#F2F2F2"/>
<path d="M989.806 668.933C989.806 689.289 977.706 696.396 962.778 696.396C962.432 696.396 962.086 696.391 961.743 696.384C961.051 696.369 960.365 696.336 959.688 696.289C946.215 695.336 935.75 687.864 935.75 668.933C935.75 649.345 960.78 624.625 962.666 622.792L962.668 622.789C962.74 622.717 962.778 622.682 962.778 622.682C962.778 622.682 989.806 648.579 989.806 668.933Z" fill="#6C63FF"/>
<path d="M961.793 693.282L971.678 679.47L961.768 694.799L961.743 696.384C961.051 696.369 960.365 696.336 959.688 696.289L960.753 675.925L960.745 675.766L960.763 675.739L960.865 673.813L950.929 658.447L960.895 672.371L960.919 672.779L961.723 657.392L953.218 641.514L961.827 654.693L962.666 622.792L962.668 622.682V622.789L962.529 647.944L970.997 637.971L962.494 650.111L962.27 663.888L970.178 650.666L962.238 665.915L962.114 673.575L973.589 655.171L962.069 676.246L961.793 693.282Z" fill="#3F3D56"/>
<path d="M112.806 529.933C112.806 550.289 100.706 557.396 85.7777 557.396C85.4319 557.396 85.0862 557.391 84.7429 557.384C84.0513 557.369 83.3647 557.336 82.6881 557.289C69.215 556.336 58.7495 548.864 58.7495 529.933C58.7495 510.345 83.7802 485.625 85.6658 483.792L85.6683 483.789C85.7404 483.717 85.7777 483.682 85.7777 483.682C85.7777 483.682 112.806 509.579 112.806 529.933Z" fill="#6C63FF"/>
<path d="M84.7927 554.282L94.6786 540.47L84.7678 555.799L84.7429 557.384C84.0514 557.369 83.3648 557.336 82.6882 557.289L83.7529 536.925L83.7454 536.766L83.7628 536.739L83.8648 534.813L73.9292 519.447L83.8947 533.371L83.9195 533.779L84.7231 518.392L76.2178 502.514L84.8275 515.693L85.6659 483.792L85.6684 483.682V483.789L85.529 508.944L93.997 498.971L85.4942 511.111L85.2703 524.888L93.1785 511.666L85.238 526.915L85.1136 534.575L96.5891 516.171L85.0688 537.246L84.7927 554.282Z" fill="#3F3D56"/>
<path d="M920.946 209.978C919.91 210.067 918.94 210.525 918.138 211.303C917.463 212.273 916.978 213.455 916.719 214.762C915.328 219.732 913.127 224.147 910.258 227.724C908.116 230.39 905.382 233.727 906.575 237.677C907.066 238.985 907.728 240.187 908.528 241.221C911.945 246.394 914.105 252.718 914.682 259.236L919.123 244.175C919.828 241.784 921.301 238.958 923.24 240.013C923.89 240.366 924.414 241.119 925.076 241.412C926.656 242.11 927.8 239.994 928.795 238.461C932.225 233.175 938.52 233.21 944.097 233.61C946.731 233.799 949.649 234.148 951.659 236.675C954.999 240.874 953.689 248.093 956.138 253.209C956.469 252.753 956.72 252.204 956.876 251.594C957.032 250.984 957.089 250.325 957.044 249.656C959.067 249.363 961.476 248.636 961.877 246.031C961.959 245.024 961.909 243.987 961.728 242.965C961.274 238.8 962.061 234.775 962.315 230.683C962.568 226.59 962.138 221.931 959.823 218.779C958.994 217.72 958.062 216.812 957.059 216.087C945.601 207.162 932.844 207.729 920.946 209.978Z" fill="#412E2E"/>
</g>
<defs>
<clipPath id="clip0">
<rect width="1121.81" height="699.082" fill="white"/>
</clipPath>
</defs>
</svg>
