<svg width="1114" height="613" viewBox="0 0 1114 613" fill="none" xmlns="http://www.w3.org/2000/svg">
<path d="M928.902 96.25H476.902V189.25H928.902V96.25Z" stroke="#3F3D56" stroke-miterlimit="10"/>
<path d="M207.168 228.354C220.057 208.213 244.461 194.625 272.444 194.625C313.865 194.625 347.444 224.398 347.444 261.125C347.444 284.607 333.717 305.246 312.991 317.078" stroke="#3F3D56" stroke-miterlimit="10"/>
<path d="M896.902 114.25H444.902V207.25H896.902V114.25Z" fill="#2B97FB"/>
<path d="M159.171 25.5001C163.037 25.5001 166.171 22.366 166.171 18.5C166.171 14.6339 163.037 11.4999 159.171 11.4999C155.305 11.4999 152.171 14.6339 152.171 18.5C152.171 22.366 155.305 25.5001 159.171 25.5001Z" fill="#2B97FB"/>
<path d="M183.171 25.5001C187.037 25.5001 190.171 22.366 190.171 18.5C190.171 14.6339 187.037 11.4999 183.171 11.4999C179.305 11.4999 176.171 14.6339 176.171 18.5C176.171 22.366 179.305 25.5001 183.171 25.5001Z" fill="#2B97FB"/>
<path d="M207.171 25.5001C211.037 25.5001 214.171 22.366 214.171 18.5C214.171 14.6339 211.037 11.4999 207.171 11.4999C203.305 11.4999 200.171 14.6339 200.171 18.5C200.171 22.366 203.305 25.5001 207.171 25.5001Z" fill="#2B97FB"/>
<path d="M980.171 0.5H140.171V546.5H980.171V0.5Z" stroke="#3F3D56" stroke-miterlimit="10"/>
<path d="M140.171 30.8351H980.171" stroke="#3F3D56" stroke-miterlimit="10"/>
<path d="M161.171 22.5001C165.037 22.5001 168.171 19.366 168.171 15.5C168.171 11.6339 165.037 8.49988 161.171 8.49988C157.305 8.49988 154.171 11.6339 154.171 15.5C154.171 19.366 157.305 22.5001 161.171 22.5001Z" stroke="#3F3D56" stroke-miterlimit="10"/>
<path d="M185.171 22.5001C189.037 22.5001 192.171 19.366 192.171 15.5C192.171 11.6339 189.037 8.49988 185.171 8.49988C181.305 8.49988 178.171 11.6339 178.171 15.5C178.171 19.366 181.305 22.5001 185.171 22.5001Z" stroke="#3F3D56" stroke-miterlimit="10"/>
<path d="M209.171 22.5001C213.037 22.5001 216.171 19.366 216.171 15.5C216.171 11.6339 213.037 8.49988 209.171 8.49988C205.305 8.49988 202.171 11.6339 202.171 15.5C202.171 19.366 205.305 22.5001 209.171 22.5001Z" stroke="#3F3D56" stroke-miterlimit="10"/>
<path d="M403.898 30.8351V547.276" stroke="#3F3D56" stroke-miterlimit="10"/>
<path d="M645.402 284.75H498.402V304.75H645.402V284.75Z" fill="#F2F2F2"/>
<path d="M876.402 284.75H729.402V304.75H876.402V284.75Z" fill="#F2F2F2"/>
<path d="M653.402 274.75H506.402V294.75H653.402V274.75Z" stroke="#3F3D56" stroke-miterlimit="10"/>
<path d="M645.402 439.75H498.402V459.75H645.402V439.75Z" fill="#F2F2F2"/>
<path d="M653.402 429.75H506.402V449.75H653.402V429.75Z" stroke="#3F3D56" stroke-miterlimit="10"/>
<path d="M876.902 360.25H498.902V380.25H876.902V360.25Z" fill="#F2F2F2"/>
<path d="M884.902 352.25H506.902V372.25H884.902V352.25Z" stroke="#3F3D56" stroke-miterlimit="10"/>
<path d="M884.402 274.75H737.402V294.75H884.402V274.75Z" stroke="#3F3D56" stroke-miterlimit="10"/>
<path d="M181.31 275.123C181.31 301.255 198.479 323.836 223.374 334.539L187.772 248.256C183.536 256.579 181.322 265.784 181.31 275.123ZM306.329 271.792C306.329 263.633 303.016 257.983 300.174 253.585C296.391 248.147 292.846 243.542 292.846 238.104C292.846 232.035 298.048 226.386 305.378 226.386C305.709 226.386 306.023 226.423 306.346 226.439C292.022 215.069 274.233 208.953 255.945 209.109C229.871 209.109 206.931 220.942 193.586 238.865C195.337 238.911 196.989 238.943 198.389 238.943C206.196 238.943 218.28 238.105 218.28 238.105C222.303 237.895 222.777 243.122 218.76 243.543C218.76 243.543 214.715 243.964 210.216 244.172L237.395 315.68L253.73 272.351L242.1 244.171C238.081 243.962 234.274 243.542 234.274 243.542C230.252 243.333 230.723 237.894 234.745 238.104C234.745 238.104 247.071 238.942 254.404 238.942C262.209 238.942 274.295 238.104 274.295 238.104C278.321 237.894 278.794 243.121 274.774 243.542C274.774 243.542 270.722 243.962 266.231 244.171L293.203 315.137L300.646 293.133C303.874 284.002 306.329 277.443 306.329 271.792H306.329Z" fill="#2B97FB"/>
<path d="M257.255 280.898L234.862 338.453C249.952 342.368 265.835 342.004 280.73 337.402C280.523 337.116 280.345 336.812 280.198 336.492L257.255 280.898ZM321.434 243.45C321.773 245.697 321.941 247.966 321.937 250.238C321.937 256.938 320.522 264.468 316.262 273.885L293.464 332.187C315.653 320.742 330.577 299.479 330.577 275.123C330.558 263.917 327.39 252.942 321.434 243.45L321.434 243.45Z" fill="#2B97FB"/>
</svg>
